<?xml version="1.0" encoding="UTF-8"?>
<svg version="1.1" xmlns="http://www.w3.org/2000/svg" width="16" height="16">
<path d="M0 0 C5.28 0 10.56 0 16 0 C16 5.28 16 10.56 16 16 C10.72 16 5.44 16 0 16 C0 10.72 0 5.44 0 0 Z " fill="#0175DD" transform="translate(0,0)"/>
<path d="M0 0 C0.33 1.65 0.66 3.3 1 5 C-0.65 5.33 -2.3 5.66 -4 6 C-4 6.99 -4 7.98 -4 9 C-2.35 9 -0.7 9 1 9 C1 9.66 1 10.32 1 11 C-1.3125 11.625 -1.3125 11.625 -4 12 C-4.99 11.34 -5.98 10.68 -7 10 C-6.34 11.32 -5.68 12.64 -5 14 C-8.875 12.125 -8.875 12.125 -10 11 C-10.46023689 3.86632826 -10.46023689 3.86632826 -8.9375 1 C-5.97912322 -0.52690415 -3.26283401 -0.18468872 0 0 Z " fill="#007FE7" transform="translate(11,1)"/>
<path d="M0 0 C5.28 0 10.56 0 16 0 C16 3.3 16 6.6 16 10 C15.67 10 15.34 10 15 10 C14.71125 8.865625 14.4225 7.73125 14.125 6.5625 C13.75375 5.386875 13.3825 4.21125 13 3 C9.98675805 1.49337903 7.31713623 1.82229627 4 2 C1.58660109 3.98959408 1.58660109 3.98959408 1.625 7.875 C1.68458654 11.15225968 1.85350076 11.81687595 4 14.5 C4.66 14.995 5.32 15.49 6 16 C4.02 16 2.04 16 0 16 C0 10.72 0 5.44 0 0 Z " fill="#006FEE" transform="translate(0,0)"/>
<path d="M0 0 C0 0.66 0 1.32 0 2 C-1.65 2.33 -3.3 2.66 -5 3 C-5 3.99 -5 4.98 -5 6 C-3.35 6 -1.7 6 0 6 C0 6.66 0 7.32 0 8 C-2.3125 8.6875 -2.3125 8.6875 -5 9 C-6.875 7.9375 -6.875 7.9375 -8 6 C-7.6875 2.8125 -7.6875 2.8125 -7 0 C-3.86650268 -1.04449911 -3.01031744 -0.93423645 0 0 Z " fill="#F9F9F9" transform="translate(12,4)"/>
<path d="M0 0 C0 0.66 0 1.32 0 2 C-1.98 2 -3.96 2 -6 2 C-6.66 4.31 -7.32 6.62 -8 9 C-8.33 9 -8.66 9 -9 9 C-9.36 3.6 -9.36 3.6 -7.875 1.125 C-5.21965017 -0.4682099 -3.03210482 -0.20214032 0 0 Z " fill="#0494E1" transform="translate(11,2)"/>
<path d="M0 0 C0.66 1.32 1.32 2.64 2 4 C4.31 4 6.62 4 9 4 C9 4.66 9 5.32 9 6 C7.02 6.33 5.04 6.66 3 7 C0 3.375 0 3.375 0 0 Z " fill="#0352AE" transform="translate(3,8)"/>
<path d="M0 0 C-0.33 1.32 -0.66 2.64 -1 4 C-2.98 4 -4.96 4 -7 4 C-7 3.01 -7 2.02 -7 1 C-2.25 0 -2.25 0 0 0 Z " fill="#0199DC" transform="translate(14,7)"/>
<path d="M0 0 C0 0.66 0 1.32 0 2 C-1.98 2.33 -3.96 2.66 -6 3 C-6.33 2.01 -6.66 1.02 -7 0 C-3.86650268 -1.04449911 -3.01031744 -0.93423645 0 0 Z " fill="#EAEEEF" transform="translate(12,4)"/>
</svg>
